HIERARCHY
ROOT Hips
{
	OFFSET -3.958830 18.904000 13.208200
	CHANNELS 6 Xposition Yposition Zposition Zrotation Yrotation Xrotation 
	JOINT LHipJoint
	{
		OFFSET 0.000000 0.000000 0.000000
		CHANNELS 3 Zrotation Yrotation Xrotation
		JOINT LeftUpLeg
		{
			OFFSET 1.800000 -1.400000 0.085000
			CHANNELS 3 Zrotation Yrotation Xrotation
			JOINT LeftLeg
			{
				OFFSET 2.215000 -6.000000 0.000000
				CHANNELS 3 Zrotation Yrotation Xrotation
				JOINT LeftFoot
				{
					OFFSET 2.500000 -6.900000 0.000000
					CHANNELS 3 Zrotation Yrotation Xrotation
					JOINT LeftToeBase
					{
						OFFSET 0.200000 -0.500000 1.950000
						CHANNELS 3 Zrotation Yrotation Xrotation
						End Site
						{
							OFFSET 0.000000 0.000000 0.000000
						}
					}
				}
			}
		}
	}
	JOINT RHipJoint
	{
		OFFSET 0.000000 0.000000 0.000000
		CHANNELS 3 Zrotation Yrotation Xrotation
		JOINT RightUpLeg
		{
			OFFSET -1.800000 -1.400000 0.085000
			CHANNELS 3 Zrotation Yrotation Xrotation
			JOINT RightLeg
			{
				OFFSET -2.215000 -6.000000 0.000000
				CHANNELS 3 Zrotation Yrotation Xrotation
				JOINT RightFoot
				{
					OFFSET -2.500000 -6.900000 0.000000
					CHANNELS 3 Zrotation Yrotation Xrotation
					JOINT RightToeBase
					{
						OFFSET -0.200000 -0.500000 1.950000
						CHANNELS 3 Zrotation Yrotation Xrotation
						End Site
						{
							OFFSET 0.000000 0.000000 0.000000
						}
					}
				}
			}
		}
	}
	JOINT LowerBack
	{
		OFFSET 0.000000 0.000000 0.000000
		CHANNELS 3 Zrotation Yrotation Xrotation
		JOINT Spine
		{
			OFFSET -0.087000 1.940000 -0.288900
			CHANNELS 3 Zrotation Yrotation Xrotation
			JOINT Spine1
			{
				OFFSET 0.000000 1.950000 0.060000
				CHANNELS 3 Zrotation Yrotation Xrotation
				JOINT Neck
				{
					OFFSET 0.000000 0.000000 0.000000
					CHANNELS 3 Zrotation Yrotation Xrotation
					JOINT Neck1
					{
						OFFSET 0.000000 1.600000 0.340000
						CHANNELS 3 Zrotation Yrotation Xrotation
						JOINT Head
						{
							OFFSET 0.000000 1.667000 -0.240000
							CHANNELS 3 Zrotation Yrotation Xrotation
							End Site
							{
								OFFSET 0.000000 0.000000 0.000000
							}
						}
					}
				}
				JOINT LeftShoulder
				{
					OFFSET 0.000000 0.000000 0.000000
					CHANNELS 3 Zrotation Yrotation Xrotation
					JOINT LeftArm
					{
						OFFSET 2.700000 1.550000 -0.730000
						CHANNELS 3 Zrotation Yrotation Xrotation
						JOINT LeftForeArm
						{
							OFFSET 5.450000 0.000000 0.000000
							CHANNELS 3 Zrotation Yrotation Xrotation
							JOINT LeftHand
							{
								OFFSET 3.450000 0.000000 0.000000
								CHANNELS 3 Zrotation Yrotation Xrotation
								JOINT LeftHandIndex1
								{
									OFFSET 0.750000 0.000000 0.000000
									CHANNELS 3 Zrotation Yrotation Xrotation
									End Site
									{
										OFFSET 0.000000 0.000000 0.000000
									}
								}
							}
						}
					}
				}
				JOINT RightShoulder
				{
					OFFSET 0.000000 0.000000 0.000000
					CHANNELS 3 Zrotation Yrotation Xrotation
					JOINT RightArm
					{
						OFFSET -2.700000 1.550000 -0.730000
						CHANNELS 3 Zrotation Yrotation Xrotation
						JOINT RightForeArm
						{
							OFFSET -5.450000 0.000000 0.000000
							CHANNELS 3 Zrotation Yrotation Xrotation
							JOINT RightHand
							{
								OFFSET -3.450000 0.000000 0.000000
								CHANNELS 3 Zrotation Yrotation Xrotation
								JOINT RightHandIndex1
								{
									OFFSET -0.750000 0.000000 0.000000
									CHANNELS 3 Zrotation Yrotation Xrotation
									End Site
									{
										OFFSET 0.000000 0.000000 0.000000
									}
								}
							}
						}
					}
				}
			}
		}
	}
}
MOTION
Frames: 9
Frame Time: 0.016667
-0.260800 17.303930 -4.250240 149.038203 -55.284704 -165.665623 -16.155433 11.654955 6.091190 14.619762 4.854886 -64.857593 18.603360 6.212581 21.590820 0.169178 5.436107 2.458412 0.396020 0.265950 0.369560 17.687121 -9.803369 1.029188 -20.294112 2.583944 0.538377 5.648239 -6.993137 22.032121 -0.463228 -5.106732 2.589342 0.067050 -0.025670 0.112320 -2.627473 -3.158204 -8.999314 -3.854686 8.823456 44.471782 5.514568 9.307971 9.961421 -0.201031 -9.865177 -12.575166 -20.375310 12.615277 39.703172 -6.900200 8.334680 -6.013140 -13.186516 -6.058567 6.315418 -21.634943 15.420294 -5.675466 -20.759850 23.611618 -7.984600 -3.798572 2.834313 0.295460 -0.055890 0.136580 0.136110 13.524038 22.608666 8.180890 22.966374 20.651732 -5.757998 -133.101139 32.105154 -85.342761 2.226930 -1.764284 0.022790 0.059240 -0.197830 -0.068550 
-0.312120 17.357390 -4.196980 148.058703 -52.783520 -165.455687 -16.322631 11.491300 6.500858 19.911537 7.122025 -64.915008 11.956980 9.673544 37.436439 0.303962 7.863523 1.565953 0.420130 0.292120 0.436570 17.654126 -9.545148 0.689714 -21.759864 2.832860 -0.102580 3.819636 -6.614077 23.216043 -0.447990 -5.007447 2.587843 0.093710 -0.075390 0.121930 -2.322501 -3.355618 -9.079488 -6.775950 10.545087 43.956945 6.305511 9.865600 11.805012 -0.145171 -9.084099 -12.139804 -18.688123 12.138108 39.898565 -9.463070 9.022850 -9.007360 -13.023264 -6.589264 6.313191 -20.020208 13.206892 -4.796660 -22.563254 20.006400 -7.829094 -3.743528 2.840485 0.328380 -0.061580 0.171050 0.101830 12.958949 23.054571 7.807647 22.427091 21.765384 -6.599215 -131.132348 33.182573 -84.723881 2.204242 -1.698280 0.014836 0.069970 -0.195610 -0.110590 
-0.384160 17.431540 -4.127640 149.364063 -49.329977 -166.440749 -16.434371 11.146408 7.054250 25.149753 9.982105 -64.013304 3.954833 15.197495 45.829103 0.548612 10.025545 0.822110 0.443430 0.298520 0.472860 17.694501 -9.258936 0.378252 -22.488743 3.263442 -2.030563 2.295713 -6.063906 24.278359 -0.391536 -4.812604 2.625296 0.107430 -0.116050 0.117890 -2.060696 -3.327373 -9.237055 -8.243279 11.617586 42.027563 6.702060 10.230629 12.983210 -0.038438 -8.780037 -12.100945 -18.674332 12.653517 41.880139 -10.122410 9.467290 -8.304320 -13.984242 -6.736786 6.770491 -19.997371 14.629853 -4.558372 -23.337806 11.833334 -6.156205 -3.600291 2.937556 0.343790 -0.071000 0.169970 0.083110 13.532656 23.207379 7.357280 21.767997 23.025824 -6.000098 -129.340844 35.899372 -85.227930 2.205342 -1.658173 0.011290 0.039710 -0.203580 -0.142940 
-0.445410 17.508090 -4.054910 150.055768 -46.866290 -166.487173 -16.429356 10.841619 7.378623 27.502862 10.619640 -63.361603 -0.196685 19.755559 53.704653 0.871803 11.705421 0.313795 0.433470 0.295350 0.441570 17.779344 -9.202920 0.221154 -23.162057 3.689710 -5.153456 1.463821 -5.835786 26.357670 -0.341310 -4.745454 2.623038 0.119690 -0.091960 0.120110 -2.131448 -2.941497 -9.312367 -8.365792 11.610100 41.059866 5.900592 10.040368 13.322446 -0.474384 -9.291981 -11.788979 -19.862756 13.955533 42.012265 -9.924620 9.411120 -8.449610 -13.281794 -5.374794 6.663591 -21.852049 15.544641 -5.022235 -22.659316 -0.446359 -3.103491 -3.507104 3.021073 0.340470 -0.055380 0.150800 0.077590 13.456980 22.078484 6.546358 23.874323 25.206115 -4.320576 -129.262877 38.658738 -88.830523 2.181779 -1.606872 0.001270 0.057280 -0.169530 -0.142180 
-0.526880 17.578460 -3.966490 152.055972 -44.904454 -167.675450 -16.316083 10.679010 7.424795 29.204109 10.320599 -60.159772 -2.418551 24.346595 62.493066 1.345865 13.272748 -0.091521 0.473310 0.366130 0.478880 17.908898 -9.309929 0.244109 -23.019168 4.258150 -9.096868 0.927780 -5.830412 30.320922 -0.370636 -4.868468 2.553756 0.144940 -0.100670 0.136860 -2.396265 -2.297631 -9.323258 -6.344040 10.493960 40.858565 3.726156 9.554591 13.604665 -0.656043 -9.517769 -11.273698 -20.285355 14.762141 42.053253 -10.934360 9.328180 -10.618270 -12.104401 -4.248582 6.016544 -21.489528 14.093477 -5.128525 -25.427768 -7.408320 -1.474339 -3.458845 3.085341 0.324340 -0.055990 0.189070 0.084110 12.337925 20.612812 5.684085 27.258316 27.761092 -2.755599 -128.394909 41.540407 -92.276025 2.185639 -1.535647 0.037280 0.088800 -0.185010 -0.124460 
-0.582150 17.641850 -3.874740 152.805796 -44.803730 -166.960797 -16.247344 10.411534 7.568052 28.727132 7.953486 -60.541966 -5.054245 27.856932 68.012237 1.702626 14.404859 -0.357939 0.518050 0.419630 0.503060 17.986794 -9.276286 0.345614 -23.010206 4.299552 -12.213074 1.615859 -6.238284 31.939392 -0.396452 -4.944131 2.492020 0.166690 -0.113820 0.148190 -2.612145 -2.007774 -9.403656 -5.253961 9.037490 40.002544 2.576435 8.239771 13.523626 -1.109513 -9.824004 -11.445437 -21.487558 16.107440 42.373921 -9.790540 9.091780 -11.473060 -10.181513 -4.142337 6.071445 -23.147395 12.223309 -5.320131 -28.471048 -11.071639 -0.457598 -3.431915 3.148655 0.329900 -0.076730 0.213680 0.091270 11.408588 19.742868 5.430806 30.628103 28.752378 -1.970092 -127.085467 44.723780 -95.315829 2.206686 -1.478225 0.064240 0.093940 -0.198580 -0.113970 
-0.630850 17.688580 -3.791740 153.664975 -46.249977 -166.543946 -16.170386 10.373629 7.477261 26.246756 4.062188 -61.237797 -3.739709 28.613045 74.627896 1.926592 15.322777 -0.566611 0.491990 0.375820 0.473290 18.017781 -9.291533 0.552749 -22.317499 4.187716 -14.798802 2.798682 -7.014598 33.756457 -0.421263 -5.146118 2.411864 0.158600 -0.084190 0.132590 -2.824451 -1.933326 -9.428462 -3.781941 7.035847 39.451298 1.595457 6.652077 13.175698 -1.195444 -9.796861 -12.052221 -22.153125 17.356596 43.423554 -8.117610 8.766140 -11.547880 -9.001309 -5.231969 6.604618 -25.375284 11.160607 -5.809426 -30.878094 -15.470063 0.764223 -3.439882 3.139652 0.379070 -0.082580 0.196200 0.075240 10.723702 19.625232 5.572426 33.426019 28.612082 -2.356625 -125.262095 48.529319 -98.318117 2.215648 -1.336511 0.022120 0.135750 -0.149380 -0.129800 
-0.666480 17.728070 -3.717450 154.231979 -48.454898 -165.454065 -16.221692 10.397068 7.464047 23.010938 -0.498185 -63.498222 -2.498805 28.167437 79.530340 2.104305 15.900893 -0.713321 0.517310 0.401770 0.493990 17.956783 -9.051745 0.779109 -21.502659 4.260548 -17.809527 4.420523 -8.165195 36.500305 -0.513665 -5.499805 2.251418 0.161930 -0.147480 0.128280 -2.708017 -2.459281 -9.497106 -4.000508 5.546391 37.985335 2.505433 4.986725 12.712355 -0.935529 -9.432383 -12.981774 -23.133432 18.209002 46.697836 -7.553410 8.439860 -11.747270 -8.751610 -7.390005 7.313997 -29.546301 8.387281 -5.854707 -31.143333 -14.991742 0.597314 -3.419035 3.111550 0.423370 -0.135600 0.238590 0.057130 10.428050 20.561900 6.093952 35.397203 27.721811 -3.589704 -121.091937 52.589239 -97.804180 2.269493 -1.118165 0.040480 0.116420 -0.153650 -0.142390 
-0.712610 17.739810 -3.649750 155.951345 -50.293125 -165.792737 -16.202762 10.581486 7.210895 19.764756 -4.353621 -62.425014 -1.240057 26.537121 82.043061 2.174589 15.986071 -0.747317 0.570090 0.466750 0.548210 17.930125 -8.887763 1.138538 -19.639686 4.727637 -21.140788 5.328145 -9.249485 40.625023 -0.683981 -6.017024 2.052122 0.172250 -0.229910 0.125020 -2.697314 -2.883880 -9.504770 -3.603089 3.457668 37.363809 2.710256 2.973262 12.079891 -0.568073 -9.028229 -14.187411 -23.686638 19.567532 49.273471 -7.212760 9.009910 -13.193780 -8.356383 -10.948872 8.460700 -31.397410 6.304856 -5.653757 -33.798632 -11.395341 -0.594926 -3.375107 3.092297 0.474960 -0.202360 0.310210 0.045570 9.832045 22.703415 6.685032 37.014538 27.747701 -4.948968 -113.956275 57.001301 -93.334402 2.316405 -0.610833 0.074950 0.103360 -0.183230 -0.153460 
